<svg id="kity_svg_6" xmlns="http://www.w3.org/2000/svg" xmlns:xlink="http://www.w3.org/1999/xlink" version="1.1" width="799" height="925" style="background: rgb(251, 251, 251); visibility: visible;" viewBox="0 0 799 925"><defs id="kity_defs_7"><linearGradient id="kity_linearGradient_17" x1="0" y1="0" x2="0" y2="1"><stop id="kity_stop_18" offset="0" stop-color="rgb(255, 255, 255)"></stop><stop id="kity_stop_19" offset="1" stop-color="rgb(204, 204, 204)"></stop></linearGradient><marker id="kity_marker_2" orient="auto" refX="6" refY="0" viewBox="-7 -7 14 14" markerWidth="7" markerHeight="7" markerUnits="userSpaceOnUse"><path id="kity_path_3" fill="rgb(115, 161, 191)" stroke="none" d="M6,0A6,6,0,1,1,-6,0A6,6,0,1,1,6,0"></path></marker></defs><g id="kity_g_8"><g id="minder1" text-rendering="optimize-speed"><g id="minder_connect_group1"><path id="kity_path_31" fill="none" stroke="rgb(115, 161, 191)" stroke-width="1" d="M76.5,411.5A174,354,0,0,1,250.5,57.5"></path><path id="kity_path_33" fill="none" stroke="rgb(115, 161, 191)" stroke-width="1" d="M440.5,57.5C460.5,57.5,460.5,31.5,480.5,31.5"></path><path id="kity_path_35" fill="none" stroke="rgb(115, 161, 191)" stroke-width="1" d="M440.5,57.5C460.5,57.5,460.5,83.5,480.5,83.5"></path><path id="kity_path_37" fill="none" stroke="rgb(115, 161, 191)" stroke-width="1" d="M76.5,411.5A174,188,0,0,1,250.5,223.5"></path><path id="kity_path_39" fill="none" stroke="rgb(115, 161, 191)" stroke-width="1" d="M444.5,223.5C464.5,223.5,464.5,145.5,484.5,145.5"></path><path id="kity_path_41" fill="none" stroke="rgb(115, 161, 191)" stroke-width="1" d="M444.5,223.5C464.5,223.5,464.5,197.5,484.5,197.5"></path><path id="kity_path_43" fill="none" stroke="rgb(115, 161, 191)" stroke-width="1" d="M444.5,223.5C464.5,223.5,464.5,249.5,484.5,249.5"></path><path id="kity_path_45" fill="none" stroke="rgb(115, 161, 191)" stroke-width="1" d="M444.5,223.5C464.5,223.5,464.5,301.5,484.5,301.5"></path><path id="kity_path_47" fill="none" stroke="rgb(115, 161, 191)" stroke-width="1" d="M76.5,411.5A174,56.5,0,0,0,250.5,468"></path><path id="kity_path_49" fill="none" stroke="rgb(115, 161, 191)" stroke-width="1" d="M476.5,468.5C496.5,468,496.5,364.5,516.5,364.5"></path><path id="kity_path_51" fill="none" stroke="rgb(115, 161, 191)" stroke-width="1" d="M476.5,468.5C496.5,468,496.5,468.5,516.5,468.5"></path><path id="kity_path_53" fill="none" stroke="rgb(115, 161, 191)" stroke-width="1" d="M669.5,468.5C689.5,468.5,689.5,416.5,709.5,416.5"></path><path id="kity_path_55" fill="none" stroke="rgb(115, 161, 191)" stroke-width="1" d="M669.5,468.5C689.5,468.5,689.5,468.5,709.5,468.5"></path><path id="kity_path_57" fill="none" stroke="rgb(115, 161, 191)" stroke-width="1" d="M669.5,468.5C689.5,468.5,689.5,520.5,709.5,520.5"></path><path id="kity_path_59" fill="none" stroke="rgb(115, 161, 191)" stroke-width="1" d="M476.5,468.5C496.5,468,496.5,572.5,516.5,572.5"></path><path id="kity_path_61" fill="none" stroke="rgb(115, 161, 191)" stroke-width="1" d="M76.5,411.5A174,352.5,0,0,0,250.5,764"></path><path id="kity_path_63" fill="none" stroke="rgb(115, 161, 191)" stroke-width="1" d="M419.5,764.5C439.5,764,439.5,634.5,459.5,634.5"></path><path id="kity_path_65" fill="none" stroke="rgb(115, 161, 191)" stroke-width="1" d="M419.5,764.5C439.5,764,439.5,686.5,459.5,686.5"></path><path id="kity_path_67" fill="none" stroke="rgb(115, 161, 191)" stroke-width="1" d="M419.5,764.5C439.5,764,439.5,738.5,459.5,738.5"></path><path id="kity_path_69" fill="none" stroke="rgb(115, 161, 191)" stroke-width="1" d="M419.5,764.5C439.5,764,439.5,790.5,459.5,790.5"></path><path id="kity_path_71" fill="none" stroke="rgb(115, 161, 191)" stroke-width="1" d="M419.5,764.5C439.5,764,439.5,842.5,459.5,842.5"></path><path id="kity_path_73" fill="none" stroke="rgb(115, 161, 191)" stroke-width="1" d="M419.5,764.5C439.5,764,439.5,894.5,459.5,894.5"></path></g><g id="minder_node1"><path id="node_outline1" fill="rgb(115, 161, 191)" stroke="rgb(57, 80, 96)" d="M25.5,391.5h102a5,5,0,0,1,5,5v30a5,5,0,0,1,-5,5h-102a5,5,0,0,1,-5,-5v-30a5,5,0,0,1,5,-5z" stroke-width="3"></path><g id="node_text1" fill="white"><text id="kity_text_22" text-rendering="inherit" font-size="16" dy=".8em" y="401.09999990463257" x="44.5">设计模型</text></g></g><g id="kity_g_12"><path id="kity_path_13" fill="none" stroke="none" d="M44.5,411.5h0v0h0z"></path></g><g id="kity_g_14"><path id="kity_path_15" fill="none" stroke="none" d="M44.5,411.5h0v0h0z"></path><path id="kity_path_16" fill="none" stroke="none"></path></g><g id="minder_node2"><g id="node_expander3" style="cursor: pointer;"><path id="kity_path_153" fill="white" stroke="gray" d="M251.5,57.5A6,6,0,1,1,239.5,57.5A6,6,0,1,1,251.5,57.5"></path><path id="kity_path_154" fill="none" stroke="gray" d="M241,57.5L250,57.5"></path></g><path id="node_outline4" fill="rgb(238, 243, 246)" stroke="rgb(115, 161, 191)" d="M255.5,44.5h182a3,3,0,0,1,3,3v20a3,3,0,0,1,-3,3h-182a3,3,0,0,1,-3,-3v-20a3,3,0,0,1,3,-3z" stroke-width="1"></path><g id="node_text4" fill="black"><text id="kity_text_79" text-rendering="inherit" font-size="14" dy=".8em" y="48.40000009536743" x="272.5">设计师需要的教育（2）</text></g></g><g id="minder_node3"><g id="node_expander1" display="none" style="cursor: pointer;"><path id="kity_path_147" fill="white" stroke="gray" d="M480.5,31.5A6,6,0,1,1,468.5,31.5A6,6,0,1,1,480.5,31.5"></path><path id="kity_path_148" fill="none" stroke="gray"></path></g><path id="node_outline2" fill="none" stroke="none" d="M485.5,20.5h108a5,5,0,0,1,5,5v12a5,5,0,0,1,-5,5h-108a5,5,0,0,1,-5,-5v-12a5,5,0,0,1,5,-5z"></path><g id="node_text2" fill="black"><text id="kity_text_75" text-rendering="inherit" font-size="12" dy=".8em" y="23.700000047683716" x="490.5">高级技能专业训练</text></g></g><g id="minder_node4"><g id="node_expander2" display="none" style="cursor: pointer;"><path id="kity_path_150" fill="white" stroke="gray" d="M480.5,83.5A6,6,0,1,1,468.5,83.5A6,6,0,1,1,480.5,83.5"></path><path id="kity_path_151" fill="none" stroke="gray"></path></g><path id="node_outline3" fill="none" stroke="none" d="M485.5,72.5h179a5,5,0,0,1,5,5v12a5,5,0,0,1,-5,5h-179a5,5,0,0,1,-5,-5v-12a5,5,0,0,1,5,-5z"></path><g id="node_text3" fill="black"><text id="kity_text_77" text-rendering="inherit" font-size="12" dy=".8em" y="75.70000004768372" x="490.5">设计专业活动必须的思维和知识</text></g></g><g id="minder_node5"><g id="node_expander8" style="cursor: pointer;"><path id="kity_path_168" fill="white" stroke="gray" d="M251.5,223.5A6,6,0,1,1,239.5,223.5A6,6,0,1,1,251.5,223.5"></path><path id="kity_path_169" fill="none" stroke="gray" d="M241,223.5L250,223.5"></path></g><path id="node_outline9" fill="rgb(238, 243, 246)" stroke="rgb(115, 161, 191)" d="M255.5,210.5h186a3,3,0,0,1,3,3v20a3,3,0,0,1,-3,3h-186a3,3,0,0,1,-3,-3v-20a3,3,0,0,1,3,-3z" stroke-width="1"></path><g id="node_text9" fill="black"><text id="kity_text_89" text-rendering="inherit" font-size="14" dy=".8em" y="214.40000009536743" x="272.5">设计师需要的技能（4）&#xa0;</text></g></g><g id="minder_node6"><g id="node_expander4" display="none" style="cursor: pointer;"><path id="kity_path_156" fill="white" stroke="gray" d="M484.5,145.5A6,6,0,1,1,472.5,145.5A6,6,0,1,1,484.5,145.5"></path><path id="kity_path_157" fill="none" stroke="gray"></path></g><path id="node_outline5" fill="none" stroke="none" d="M489.5,134.5h72a5,5,0,0,1,5,5v12a5,5,0,0,1,-5,5h-72a5,5,0,0,1,-5,-5v-12a5,5,0,0,1,5,-5z"></path><g id="node_text5" fill="black"><text id="kity_text_81" text-rendering="inherit" font-size="12" dy=".8em" y="137.70000004768372" x="494.5">科学和技术</text></g></g><g id="minder_node7"><g id="node_expander5" display="none" style="cursor: pointer;"><path id="kity_path_159" fill="white" stroke="gray" d="M484.5,197.5A6,6,0,1,1,472.5,197.5A6,6,0,1,1,484.5,197.5"></path><path id="kity_path_160" fill="none" stroke="gray"></path></g><path id="node_outline6" fill="none" stroke="none" d="M489.5,186.5h35a5,5,0,0,1,5,5v12a5,5,0,0,1,-5,5h-35a5,5,0,0,1,-5,-5v-12a5,5,0,0,1,5,-5z"></path><g id="node_text6" fill="black"><text id="kity_text_83" text-rendering="inherit" font-size="12" dy=".8em" y="189.70000004768372" x="494.5">设计</text></g></g><g id="minder_node8"><g id="node_expander6" display="none" style="cursor: pointer;"><path id="kity_path_162" fill="white" stroke="gray" d="M484.5,249.5A6,6,0,1,1,472.5,249.5A6,6,0,1,1,484.5,249.5"></path><path id="kity_path_163" fill="none" stroke="gray"></path></g><path id="node_outline7" fill="none" stroke="none" d="M489.5,238.5h36a5,5,0,0,1,5,5v12a5,5,0,0,1,-5,5h-36a5,5,0,0,1,-5,-5v-12a5,5,0,0,1,5,-5z"></path><g id="node_text7" fill="black"><text id="kity_text_85" text-rendering="inherit" font-size="12" dy=".8em" y="241.70000004768372" x="494.5">艺术</text></g></g><g id="minder_node9"><g id="node_expander7" display="none" style="cursor: pointer;"><path id="kity_path_165" fill="white" stroke="gray" d="M484.5,301.5A6,6,0,1,1,472.5,301.5A6,6,0,1,1,484.5,301.5"></path><path id="kity_path_166" fill="none" stroke="gray"></path></g><path id="node_outline8" fill="none" stroke="none" d="M489.5,290.5h47a5,5,0,0,1,5,5v12a5,5,0,0,1,-5,5h-47a5,5,0,0,1,-5,-5v-12a5,5,0,0,1,5,-5z"></path><g id="node_text8" fill="black"><text id="kity_text_87" text-rendering="inherit" font-size="12" dy=".8em" y="293.7000000476837" x="494.5">诠释学</text></g></g><g id="minder_node10"><g id="node_expander15" style="cursor: pointer;"><path id="kity_path_189" fill="white" stroke="gray" d="M251.5,468A6,6,0,1,1,239.5,468A6,6,0,1,1,251.5,468"></path><path id="kity_path_190" fill="none" stroke="gray" d="M241,468L250,468"></path></g><path id="node_outline16" fill="rgb(238, 243, 246)" stroke="rgb(115, 161, 191)" d="M255.5,453.5h218a3,3,0,0,1,3,3v23a3,3,0,0,1,-3,3h-218a3,3,0,0,1,-3,-3v-23a3,3,0,0,1,3,-3z" stroke-width="1"></path><g id="node_text16" fill="black"><text id="kity_text_103" text-rendering="inherit" font-size="14" dy=".8em" y="458.40000009536743" x="272.5">推进行为改变的方式（3）</text></g><g id="kity_g_118" style="cursor: pointer;"><path id="kity_path_119" fill="none" stroke="none" d="M443,459h12a2,2,0,0,1,2,2v13a2,2,0,0,1,-2,2h-12a2,2,0,0,1,-2,-2v-13a2,2,0,0,1,2,-2z"></path><path id="kity_path_120" fill="black" stroke="none" d="M452,470H446V469h6L452,470L452,470zM452,468H446V467h6V468zM452,466H446V465h6V466zM451.5,472H445V463h8v7.5M452,473l2,-2V462H444v11"></path></g></g><g id="minder_node11"><g id="node_expander9" display="none" style="cursor: pointer;"><path id="kity_path_171" fill="white" stroke="gray" d="M516.5,364.5A6,6,0,1,1,504.5,364.5A6,6,0,1,1,516.5,364.5"></path><path id="kity_path_172" fill="none" stroke="gray"></path></g><path id="node_outline10" fill="none" stroke="none" d="M521.5,353.5h180a5,5,0,0,1,5,5v12a5,5,0,0,1,-5,5h-180a5,5,0,0,1,-5,-5v-12a5,5,0,0,1,5,-5z"></path><g id="node_text10" fill="black"><text id="kity_text_91" text-rendering="inherit" font-size="12" dy=".8em" y="356.7000000476837" x="526.5">实现的行为更加容易被用户接受</text></g></g><g id="minder_node12"><g id="node_expander13" style="cursor: pointer;"><path id="kity_path_183" fill="white" stroke="gray" d="M516.5,468.5A6,6,0,1,1,504.5,468.5A6,6,0,1,1,516.5,468.5"></path><path id="kity_path_184" fill="none" stroke="gray" d="M506,468.5L515,468.5"></path></g><path id="node_outline14" fill="none" stroke="none" d="M521.5,457.5h143a5,5,0,0,1,5,5v12a5,5,0,0,1,-5,5h-143a5,5,0,0,1,-5,-5v-12a5,5,0,0,1,5,-5z"></path><g id="node_text14" fill="black"><text id="kity_text_99" text-rendering="inherit" font-size="12" dy=".8em" y="460.7000000476837" x="526.5">鼓励用户调整或改变行为</text></g></g><g id="minder_node13"><g id="node_expander10" display="none" style="cursor: pointer;"><path id="kity_path_174" fill="white" stroke="gray" d="M709.5,416.5A6,6,0,1,1,697.5,416.5A6,6,0,1,1,709.5,416.5"></path><path id="kity_path_175" fill="none" stroke="gray"></path></g><path id="node_outline11" fill="none" stroke="none" d="M714.5,405.5h35a5,5,0,0,1,5,5v12a5,5,0,0,1,-5,5h-35a5,5,0,0,1,-5,-5v-12a5,5,0,0,1,5,-5z"></path><g id="node_text11" fill="black"><text id="kity_text_93" text-rendering="inherit" font-size="12" dy=".8em" y="408.7000000476837" x="719.5">教育</text></g></g><g id="minder_node14"><g id="node_expander11" display="none" style="cursor: pointer;"><path id="kity_path_177" fill="white" stroke="gray" d="M709.5,468.5A6,6,0,1,1,697.5,468.5A6,6,0,1,1,709.5,468.5"></path><path id="kity_path_178" fill="none" stroke="gray"></path></g><path id="node_outline12" fill="none" stroke="none" d="M714.5,457.5h36a5,5,0,0,1,5,5v12a5,5,0,0,1,-5,5h-36a5,5,0,0,1,-5,-5v-12a5,5,0,0,1,5,-5z"></path><g id="node_text12" fill="black"><text id="kity_text_95" text-rendering="inherit" font-size="12" dy=".8em" y="460.7000000476837" x="719.5">刺激</text></g></g><g id="minder_node15"><g id="node_expander12" display="none" style="cursor: pointer;"><path id="kity_path_180" fill="white" stroke="gray" d="M709.5,520.5A6,6,0,1,1,697.5,520.5A6,6,0,1,1,709.5,520.5"></path><path id="kity_path_181" fill="none" stroke="gray"></path></g><path id="node_outline13" fill="none" stroke="none" d="M714.5,509.5h60a5,5,0,0,1,5,5v12a5,5,0,0,1,-5,5h-60a5,5,0,0,1,-5,-5v-12a5,5,0,0,1,5,-5z"></path><g id="node_text13" fill="black"><text id="kity_text_97" text-rendering="inherit" font-size="12" dy=".8em" y="512.7000000476837" x="719.5">态度转变</text></g></g><g id="minder_node16"><g id="node_expander14" display="none" style="cursor: pointer;"><path id="kity_path_186" fill="white" stroke="gray" d="M516.5,572.5A6,6,0,1,1,504.5,572.5A6,6,0,1,1,516.5,572.5"></path><path id="kity_path_187" fill="none" stroke="gray"></path></g><path id="node_outline15" fill="none" stroke="none" d="M521.5,561.5h252a5,5,0,0,1,5,5v12a5,5,0,0,1,-5,5h-252a5,5,0,0,1,-5,-5v-12a5,5,0,0,1,5,-5z"></path><g id="node_text15" fill="black"><text id="kity_text_101" text-rendering="inherit" font-size="12" dy=".8em" y="564.7000000476837" x="526.5">把其他行为变得不可能，让用户只有一种选择</text></g></g><g id="minder_node17"><g id="node_expander22" style="cursor: pointer;"><path id="kity_path_210" fill="white" stroke="gray" d="M251.5,764A6,6,0,1,1,239.5,764A6,6,0,1,1,251.5,764"></path><path id="kity_path_211" fill="none" stroke="gray" d="M241,764L250,764"></path></g><path id="node_outline23" fill="rgb(238, 243, 246)" stroke="rgb(115, 161, 191)" d="M255.5,749.5h161a3,3,0,0,1,3,3v23a3,3,0,0,1,-3,3h-161a3,3,0,0,1,-3,-3v-23a3,3,0,0,1,3,-3z" stroke-width="1"></path><g id="node_text23" fill="black"><text id="kity_text_117" text-rendering="inherit" font-size="14" dy=".8em" y="754.4000000953674" x="272.5">设计的步骤（6）</text></g><g id="kity_g_121" style="cursor: pointer;"><path id="kity_path_122" fill="none" stroke="none" d="M386,755h12a2,2,0,0,1,2,2v13a2,2,0,0,1,-2,2h-12a2,2,0,0,1,-2,-2v-13a2,2,0,0,1,2,-2z"></path><path id="kity_path_123" fill="black" stroke="none" d="M395,766H389V765h6L395,766L395,766zM395,764H389V763h6V764zM395,762H389V761h6V762zM394.5,768H388V759h8v7.5M395,769l2,-2V758H387v11"></path></g></g><g id="minder_node18"><g id="node_expander16" display="none" style="cursor: pointer;"><path id="kity_path_192" fill="white" stroke="gray" d="M459.5,634.5A6,6,0,1,1,447.5,634.5A6,6,0,1,1,459.5,634.5"></path><path id="kity_path_193" fill="none" stroke="gray"></path></g><path id="node_outline17" fill="none" stroke="none" d="M464.5,623.5h143a5,5,0,0,1,5,5v12a5,5,0,0,1,-5,5h-143a5,5,0,0,1,-5,-5v-12a5,5,0,0,1,5,-5z"></path><g id="node_text17" fill="black"><text id="kity_text_105" text-rendering="inherit" font-size="12" dy=".8em" y="626.7000000476837" x="469.5">通过观察和参与理解用户</text></g></g><g id="minder_node19"><g id="node_expander17" display="none" style="cursor: pointer;"><path id="kity_path_195" fill="white" stroke="gray" d="M459.5,686.5A6,6,0,1,1,447.5,686.5A6,6,0,1,1,459.5,686.5"></path><path id="kity_path_196" fill="none" stroke="gray"></path></g><path id="node_outline18" fill="none" stroke="none" d="M464.5,675.5h131a5,5,0,0,1,5,5v12a5,5,0,0,1,-5,5h-131a5,5,0,0,1,-5,-5v-12a5,5,0,0,1,5,-5z"></path><g id="node_text18" fill="black"><text id="kity_text_107" text-rendering="inherit" font-size="12" dy=".8em" y="678.7000000476837" x="469.5">头脑风暴 / 参与性设计</text></g></g><g id="minder_node20"><g id="node_expander18" display="none" style="cursor: pointer;"><path id="kity_path_198" fill="white" stroke="gray" d="M459.5,738.5A6,6,0,1,1,447.5,738.5A6,6,0,1,1,459.5,738.5"></path><path id="kity_path_199" fill="none" stroke="gray"></path></g><path id="node_outline19" fill="none" stroke="none" d="M464.5,727.5h190a5,5,0,0,1,5,5v12a5,5,0,0,1,-5,5h-190a5,5,0,0,1,-5,-5v-12a5,5,0,0,1,5,-5z"></path><g id="node_text19" fill="black"><text id="kity_text_109" text-rendering="inherit" font-size="12" dy=".8em" y="730.7000000476837" x="469.5">为选定的方案制作快速原型或实物</text></g></g><g id="minder_node21"><g id="node_expander19" display="none" style="cursor: pointer;"><path id="kity_path_201" fill="white" stroke="gray" d="M459.5,790.5A6,6,0,1,1,447.5,790.5A6,6,0,1,1,459.5,790.5"></path><path id="kity_path_202" fill="none" stroke="gray"></path></g><path id="node_outline20" fill="none" stroke="none" d="M464.5,779.5h143a5,5,0,0,1,5,5v12a5,5,0,0,1,-5,5h-143a5,5,0,0,1,-5,-5v-12a5,5,0,0,1,5,-5z"></path><g id="node_text20" fill="black"><text id="kity_text_111" text-rendering="inherit" font-size="12" dy=".8em" y="782.7000000476837" x="469.5">改进迭代已经物化的方案</text></g></g><g id="minder_node22"><g id="node_expander20" display="none" style="cursor: pointer;"><path id="kity_path_204" fill="white" stroke="gray" d="M459.5,842.5A6,6,0,1,1,447.5,842.5A6,6,0,1,1,459.5,842.5"></path><path id="kity_path_205" fill="none" stroke="gray"></path></g><path id="node_outline21" fill="none" stroke="none" d="M464.5,831.5h129a5,5,0,0,1,5,5v12a5,5,0,0,1,-5,5h-129a5,5,0,0,1,-5,-5v-12a5,5,0,0,1,5,-5z"></path><g id="node_text21" fill="black"><text id="kity_text_113" text-rendering="inherit" font-size="12" dy=".8em" y="834.7000000476837" x="469.5">验证结果（A/B test）</text></g></g><g id="minder_node23"><g id="node_expander21" display="none" style="cursor: pointer;"><path id="kity_path_207" fill="white" stroke="gray" d="M459.5,894.5A6,6,0,1,1,447.5,894.5A6,6,0,1,1,459.5,894.5"></path><path id="kity_path_208" fill="none" stroke="gray"></path></g><path id="node_outline22" fill="none" stroke="none" d="M464.5,883.5h59a5,5,0,0,1,5,5v12a5,5,0,0,1,-5,5h-59a5,5,0,0,1,-5,-5v-12a5,5,0,0,1,5,-5z"></path><g id="node_text22" fill="black"><text id="kity_text_115" text-rendering="inherit" font-size="12" dy=".8em" y="886.7000000476837" x="469.5">投产使用</text></g></g></g></g></svg>