<svg id="kity_svg_6" xmlns="http://www.w3.org/2000/svg" xmlns:xlink="http://www.w3.org/1999/xlink" version="1.1" width="1167" height="742" style="background: rgb(251, 251, 251); visibility: visible;" viewBox="0 0 1167 742"><defs id="kity_defs_7"><linearGradient id="kity_linearGradient_17" x1="0" y1="0" x2="0" y2="1"><stop id="kity_stop_18" offset="0" stop-color="rgb(255, 255, 255)"></stop><stop id="kity_stop_19" offset="1" stop-color="rgb(204, 204, 204)"></stop></linearGradient><marker id="kity_marker_2" orient="auto" refX="6" refY="0" viewBox="-7 -7 14 14" markerWidth="7" markerHeight="7" markerUnits="userSpaceOnUse"><path id="kity_path_3" fill="rgb(115, 161, 191)" stroke="none" d="M6,0A6,6,0,1,1,-6,0A6,6,0,1,1,6,0"></path></marker></defs><g id="kity_g_8"><g id="minder1" text-rendering="geometricPrecision"><g id="minder_connect_group1"><path id="kity_path_31" fill="none" stroke="rgb(115, 161, 191)" stroke-width="1" d="M189,371.5A286.5,338,0,0,1,475.5,33.5"></path><path id="kity_path_39" fill="none" stroke="rgb(115, 161, 191)" stroke-width="1" d="M189,371.5A286.5,272,0,0,1,475.5,99.5"></path><path id="kity_path_47" fill="none" stroke="rgb(115, 161, 191)" stroke-width="1" d="M189,371.5A286.5,206,0,0,1,475.5,165.5"></path><path id="kity_path_55" fill="none" stroke="rgb(115, 161, 191)" stroke-width="1" d="M603.5,99.5C623.5,99.5,623.5,99.5,643.5,99.5"></path><path id="kity_path_71" fill="none" stroke="rgb(115, 161, 191)" stroke-width="1" d="M189,371.5A286.5,12,0,0,1,475.5,359.5"></path><path id="kity_path_87" fill="none" stroke="rgb(115, 161, 191)" stroke-width="1" d="M588.5,359.5C608.5,359.5,608.5,229.5,628.5,229.5"></path><path id="kity_path_95" fill="none" stroke="rgb(115, 161, 191)" stroke-width="1" d="M588.5,359.5C608.5,359.5,608.5,281.5,628.5,281.5"></path><path id="kity_path_103" fill="none" stroke="rgb(115, 161, 191)" stroke-width="1" d="M588.5,359.5C608.5,359.5,608.5,489.5,628.5,489.5"></path><path id="kity_path_111" fill="none" stroke="rgb(115, 161, 191)" stroke-width="1" d="M830.5,489.5C850.5,489.5,850.5,333.5,870.5,333.5"></path><path id="kity_path_119" fill="none" stroke="rgb(115, 161, 191)" stroke-width="1" d="M830.5,489.5C850.5,489.5,850.5,385.5,870.5,385.5"></path><path id="kity_path_127" fill="none" stroke="rgb(115, 161, 191)" stroke-width="1" d="M830.5,489.5C850.5,489.5,850.5,437.5,870.5,437.5"></path><path id="kity_path_135" fill="none" stroke="rgb(115, 161, 191)" stroke-width="1" d="M830.5,489.5C850.5,489.5,850.5,489.5,870.5,489.5"></path><path id="kity_path_143" fill="none" stroke="rgb(115, 161, 191)" stroke-width="1" d="M830.5,489.5C850.5,489.5,850.5,541.5,870.5,541.5"></path><path id="kity_path_151" fill="none" stroke="rgb(115, 161, 191)" stroke-width="1" d="M830.5,489.5C850.5,489.5,850.5,593.5,870.5,593.5"></path><path id="kity_path_159" fill="none" stroke="rgb(115, 161, 191)" stroke-width="1" d="M830.5,489.5C850.5,489.5,850.5,645.5,870.5,645.5"></path><path id="kity_path_167" fill="none" stroke="rgb(115, 161, 191)" stroke-width="1" d="M189,371.5A286.5,338,0,0,0,475.5,709.5"></path><path id="kity_path_175" fill="none" stroke="rgb(115, 161, 191)" stroke-width="1" d="M631.5,709.5C651.5,709.5,651.5,709.5,671.5,709.5"></path></g><g id="minder_node1"><path id="node_outline1" fill="rgb(115, 161, 191)" stroke="rgb(115, 161, 191)" d="M25.5,351.5h327a5,5,0,0,1,5,5v30a5,5,0,0,1,-5,5h-327a5,5,0,0,1,-5,-5v-30a5,5,0,0,1,5,-5z" stroke-width="3"></path><g id="node_text1" fill="white"><text id="kity_text_22" text-rendering="inherit" font-size="16" dy=".8em" y="361.09999990463257" x="44.5">制造与行动之间：论关联性的设计教育学</text></g></g><g id="kity_g_12"><path id="kity_path_13" fill="none" stroke="none" d="M44.5,371.5h0v0h0z"></path></g><g id="kity_g_14"><path id="kity_path_15" fill="none" stroke="none" d="M44.5,371.5h0v0h0z"></path><path id="kity_path_16" fill="none" stroke="none"></path></g><g id="minder_node2"><g id="node_expander1" style="cursor: pointer;" display="none"><path id="kity_path_36" fill="white" stroke="gray" d="M476.5,33.5A6,6,0,1,1,464.5,33.5A6,6,0,1,1,476.5,33.5"></path><path id="kity_path_37" fill="none" stroke="gray"></path></g><path id="node_outline2" fill="rgb(238, 243, 246)" stroke="rgb(115, 161, 191)" d="M480.5,20.5h119a3,3,0,0,1,3,3v20a3,3,0,0,1,-3,3h-119a3,3,0,0,1,-3,-3v-20a3,3,0,0,1,3,-3z" stroke-width="1"></path><g id="node_text2" fill="black"><text id="kity_text_33" text-rendering="inherit" font-size="14" dy=".8em" y="24.40000009536743" x="497.5">关联性的存在</text></g></g><g id="minder_node3"><g id="node_expander2" style="cursor: pointer;"><path id="kity_path_44" fill="white" stroke="gray" d="M476.5,99.5A6,6,0,1,1,464.5,99.5A6,6,0,1,1,476.5,99.5"></path><path id="kity_path_45" fill="none" stroke="gray" d="M466,99.5L475,99.5"></path></g><path id="node_outline3" fill="rgb(238, 243, 246)" stroke="rgb(115, 161, 191)" d="M480.5,86.5h120a3,3,0,0,1,3,3v20a3,3,0,0,1,-3,3h-120a3,3,0,0,1,-3,-3v-20a3,3,0,0,1,3,-3z" stroke-width="1"></path><g id="node_text3" fill="black"><text id="kity_text_41" text-rendering="inherit" font-size="14" dy=".8em" y="90.40000009536743" x="497.5">艺术的重要性</text></g></g><g id="minder_node4"><g id="node_expander3" style="cursor: pointer;" display="none"><path id="kity_path_52" fill="white" stroke="gray" d="M476.5,165.5A6,6,0,1,1,464.5,165.5A6,6,0,1,1,476.5,165.5"></path><path id="kity_path_53" fill="none" stroke="gray"></path></g><path id="node_outline4" fill="rgb(238, 243, 246)" stroke="rgb(115, 161, 191)" d="M480.5,152.5h106a3,3,0,0,1,3,3v20a3,3,0,0,1,-3,3h-106a3,3,0,0,1,-3,-3v-20a3,3,0,0,1,3,-3z" stroke-width="1"></path><g id="node_text4" fill="black"><text id="kity_text_49" text-rendering="inherit" font-size="14" dy=".8em" y="156.40000009536743" x="497.5">建筑与自我</text></g></g><g id="minder_node5"><g id="node_expander4" style="cursor: pointer;" display="none"><path id="kity_path_60" fill="white" stroke="gray" d="M643.5,99.5A6,6,0,1,1,631.5,99.5A6,6,0,1,1,643.5,99.5"></path><path id="kity_path_61" fill="none" stroke="gray"></path></g><path id="node_outline5" fill="none" stroke="none" d="M648.5,88.5h384a5,5,0,0,1,5,5v12a5,5,0,0,1,-5,5h-384a5,5,0,0,1,-5,-5v-12a5,5,0,0,1,5,-5z" stroke-width="3"></path><g id="node_text5" fill="black"><text id="kity_text_57" text-rendering="inherit" font-size="12" dy=".8em" y="91.70000004768372" x="653.5">好的艺术就像科研，为了寻找新的答案研究世界，而非为了直接的用途</text></g></g><g id="minder_node7"><g id="node_expander6" style="cursor: pointer;"><path id="kity_path_76" fill="white" stroke="gray" d="M476.5,359.5A6,6,0,1,1,464.5,359.5A6,6,0,1,1,476.5,359.5"></path><path id="kity_path_77" fill="none" stroke="gray" d="M466,359.5L475,359.5"></path></g><path id="node_outline7" fill="rgb(238, 243, 246)" stroke="rgb(115, 161, 191)" d="M480.5,346.5h105a3,3,0,0,1,3,3v20a3,3,0,0,1,-3,3h-105a3,3,0,0,1,-3,-3v-20a3,3,0,0,1,3,-3z" stroke-width="1"></path><g id="node_text7" fill="black"><text id="kity_text_73" text-rendering="inherit" font-size="14" dy=".8em" y="350.40000009536743" x="497.5">别府市项目</text></g></g><g id="minder_node9"><g id="node_expander8" style="cursor: pointer;" display="none"><path id="kity_path_92" fill="white" stroke="gray" d="M628.5,229.5A6,6,0,1,1,616.5,229.5A6,6,0,1,1,628.5,229.5"></path><path id="kity_path_93" fill="none" stroke="gray"></path></g><path id="node_outline9" fill="none" stroke="none" d="M633.5,218.5h395a5,5,0,0,1,5,5v12a5,5,0,0,1,-5,5h-395a5,5,0,0,1,-5,-5v-12a5,5,0,0,1,5,-5z" stroke-width="3"></path><g id="node_text9" fill="black"><text id="kity_text_89" text-rendering="inherit" font-size="12" dy=".8em" y="221.70000004768372" x="638.5">探究萧条的经济、被损坏的房屋这种环境状态，与人与人之间关系的影响</text></g></g><g id="minder_node10"><g id="node_expander9" style="cursor: pointer;" display="none"><path id="kity_path_100" fill="white" stroke="gray" d="M628.5,281.5A6,6,0,1,1,616.5,281.5A6,6,0,1,1,628.5,281.5"></path><path id="kity_path_101" fill="none" stroke="gray"></path></g><path id="node_outline10" fill="none" stroke="none" d="M633.5,270.5h236a5,5,0,0,1,5,5v12a5,5,0,0,1,-5,5h-236a5,5,0,0,1,-5,-5v-12a5,5,0,0,1,5,-5z" stroke-width="3"></path><g id="node_text10" fill="black"><text id="kity_text_97" text-rendering="inherit" font-size="12" dy=".8em" y="273.7000000476837" x="638.5">为经济重振的过渡期而设计——NICE2035</text></g></g><g id="minder_node11"><g id="node_expander10" style="cursor: pointer;"><path id="kity_path_108" fill="white" stroke="gray" d="M628.5,489.5A6,6,0,1,1,616.5,489.5A6,6,0,1,1,628.5,489.5"></path><path id="kity_path_109" fill="none" stroke="gray" d="M618,489.5L627,489.5"></path></g><path id="node_outline11" fill="none" stroke="none" d="M633.5,478.5h192a5,5,0,0,1,5,5v12a5,5,0,0,1,-5,5h-192a5,5,0,0,1,-5,-5v-12a5,5,0,0,1,5,-5z" stroke-width="3"></path><g id="node_text11" fill="black"><text id="kity_text_105" text-rendering="inherit" font-size="12" dy=".8em" y="481.7000000476837" x="638.5">建立信任、同理心和参与性的策略</text></g></g><g id="minder_node12"><g id="node_expander11" style="cursor: pointer;" display="none"><path id="kity_path_116" fill="white" stroke="gray" d="M870.5,333.5A6,6,0,1,1,858.5,333.5A6,6,0,1,1,870.5,333.5"></path><path id="kity_path_117" fill="none" stroke="gray"></path></g><path id="node_outline12" fill="none" stroke="none" d="M875.5,322.5h34a5,5,0,0,1,5,5v12a5,5,0,0,1,-5,5h-34a5,5,0,0,1,-5,-5v-12a5,5,0,0,1,5,-5z" stroke-width="3"></path><g id="node_text12" fill="black"><text id="kity_text_113" text-rendering="inherit" font-size="12" dy=".8em" y="325.7000000476837" x="880.5">家访</text></g></g><g id="minder_node13"><g id="node_expander12" style="cursor: pointer;" display="none"><path id="kity_path_124" fill="white" stroke="gray" d="M870.5,385.5A6,6,0,1,1,858.5,385.5A6,6,0,1,1,870.5,385.5"></path><path id="kity_path_125" fill="none" stroke="gray"></path></g><path id="node_outline13" fill="none" stroke="none" d="M875.5,374.5h60a5,5,0,0,1,5,5v12a5,5,0,0,1,-5,5h-60a5,5,0,0,1,-5,-5v-12a5,5,0,0,1,5,-5z" stroke-width="3"></path><g id="node_text13" fill="black"><text id="kity_text_121" text-rendering="inherit" font-size="12" dy=".8em" y="377.7000000476837" x="880.5">街头交谈</text></g></g><g id="minder_node14"><g id="node_expander13" style="cursor: pointer;" display="none"><path id="kity_path_132" fill="white" stroke="gray" d="M870.5,437.5A6,6,0,1,1,858.5,437.5A6,6,0,1,1,870.5,437.5"></path><path id="kity_path_133" fill="none" stroke="gray"></path></g><path id="node_outline14" fill="none" stroke="none" d="M875.5,426.5h83a5,5,0,0,1,5,5v12a5,5,0,0,1,-5,5h-83a5,5,0,0,1,-5,-5v-12a5,5,0,0,1,5,-5z" stroke-width="3"></path><g id="node_text14" fill="black"><text id="kity_text_129" text-rendering="inherit" font-size="12" dy=".8em" y="429.7000000476837" x="880.5">拜访社区组织</text></g></g><g id="minder_node15"><g id="node_expander14" style="cursor: pointer;" display="none"><path id="kity_path_140" fill="white" stroke="gray" d="M870.5,489.5A6,6,0,1,1,858.5,489.5A6,6,0,1,1,870.5,489.5"></path><path id="kity_path_141" fill="none" stroke="gray"></path></g><path id="node_outline15" fill="none" stroke="none" d="M875.5,478.5h84a5,5,0,0,1,5,5v12a5,5,0,0,1,-5,5h-84a5,5,0,0,1,-5,-5v-12a5,5,0,0,1,5,-5z" stroke-width="3"></path><g id="node_text15" fill="black"><text id="kity_text_137" text-rendering="inherit" font-size="12" dy=".8em" y="481.7000000476837" x="880.5">沉浸文化实践</text></g></g><g id="minder_node16"><g id="node_expander15" style="cursor: pointer;" display="none"><path id="kity_path_148" fill="white" stroke="gray" d="M870.5,541.5A6,6,0,1,1,858.5,541.5A6,6,0,1,1,870.5,541.5"></path><path id="kity_path_149" fill="none" stroke="gray"></path></g><path id="node_outline16" fill="none" stroke="none" d="M875.5,530.5h60a5,5,0,0,1,5,5v12a5,5,0,0,1,-5,5h-60a5,5,0,0,1,-5,-5v-12a5,5,0,0,1,5,-5z" stroke-width="3"></path><g id="node_text16" fill="black"><text id="kity_text_145" text-rendering="inherit" font-size="12" dy=".8em" y="533.7000000476837" x="880.5">社区服务</text></g></g><g id="minder_node17"><g id="node_expander16" style="cursor: pointer;" display="none"><path id="kity_path_156" fill="white" stroke="gray" d="M870.5,593.5A6,6,0,1,1,858.5,593.5A6,6,0,1,1,870.5,593.5"></path><path id="kity_path_157" fill="none" stroke="gray"></path></g><path id="node_outline17" fill="none" stroke="none" d="M875.5,582.5h60a5,5,0,0,1,5,5v12a5,5,0,0,1,-5,5h-60a5,5,0,0,1,-5,-5v-12a5,5,0,0,1,5,-5z" stroke-width="3"></path><g id="node_text17" fill="black"><text id="kity_text_153" text-rendering="inherit" font-size="12" dy=".8em" y="585.7000000476837" x="880.5">媒体报道</text></g></g><g id="minder_node18"><g id="node_expander17" style="cursor: pointer;" display="none"><path id="kity_path_164" fill="white" stroke="gray" d="M870.5,645.5A6,6,0,1,1,858.5,645.5A6,6,0,1,1,870.5,645.5"></path><path id="kity_path_165" fill="none" stroke="gray"></path></g><path id="node_outline18" fill="none" stroke="none" d="M875.5,634.5h95a5,5,0,0,1,5,5v12a5,5,0,0,1,-5,5h-95a5,5,0,0,1,-5,-5v-12a5,5,0,0,1,5,-5z" stroke-width="3"></path><g id="node_text18" fill="black"><text id="kity_text_161" text-rendering="inherit" font-size="12" dy=".8em" y="637.7000000476837" x="880.5">社区Workshop</text></g></g><g id="minder_node19"><g id="node_expander18" style="cursor: pointer;"><path id="kity_path_172" fill="white" stroke="gray" d="M476.5,709.5A6,6,0,1,1,464.5,709.5A6,6,0,1,1,476.5,709.5"></path><path id="kity_path_173" fill="none" stroke="gray" d="M466,709.5L475,709.5"></path></g><path id="node_outline19" fill="rgb(238, 243, 246)" stroke="rgb(115, 161, 191)" d="M480.5,696.5h148a3,3,0,0,1,3,3v20a3,3,0,0,1,-3,3h-148a3,3,0,0,1,-3,-3v-20a3,3,0,0,1,3,-3z" stroke-width="1"></path><g id="node_text19" fill="black"><text id="kity_text_169" text-rendering="inherit" font-size="14" dy=".8em" y="700.4000000953674" x="497.5">关联性物品和体验</text></g></g><g id="minder_node20"><g id="node_expander19" style="cursor: pointer;" display="none"><path id="kity_path_180" fill="white" stroke="gray" d="M671.5,709.5A6,6,0,1,1,659.5,709.5A6,6,0,1,1,671.5,709.5"></path><path id="kity_path_181" fill="none" stroke="gray"></path></g><path id="node_outline20" fill="none" stroke="none" d="M676.5,698.5h466a5,5,0,0,1,5,5v12a5,5,0,0,1,-5,5h-466a5,5,0,0,1,-5,-5v-12a5,5,0,0,1,5,-5z" stroke-width="3"></path><g id="node_text20" fill="black"><text id="kity_text_177" text-rendering="inherit" font-size="12" dy=".8em" y="701.7000000476837" x="681.5">设计方案不是出去要求，而是源于设计师对社区行动的积极参与（主动进行关联设计）</text></g></g></g></g></svg>