<svg id="kity_svg_6" xmlns="http://www.w3.org/2000/svg" xmlns:xlink="http://www.w3.org/1999/xlink" version="1.1" width="1100" height="1042" style="background: rgb(251, 251, 251); visibility: visible;" viewBox="0 0 1100 1042"><defs id="kity_defs_7"><linearGradient id="kity_linearGradient_17" x1="0" y1="0" x2="0" y2="1"><stop id="kity_stop_18" offset="0" stop-color="rgb(255, 255, 255)"></stop><stop id="kity_stop_19" offset="1" stop-color="rgb(204, 204, 204)"></stop></linearGradient><marker id="kity_marker_2" orient="auto" refX="6" refY="0" viewBox="-7 -7 14 14" markerWidth="7" markerHeight="7" markerUnits="userSpaceOnUse"><path id="kity_path_3" fill="rgb(115, 161, 191)" stroke="none" d="M6,0A6,6,0,1,1,-6,0A6,6,0,1,1,6,0"></path></marker></defs><g id="kity_g_8"><g id="minder1" text-rendering="optimize-speed"><g id="minder_connect_group1"><path id="kity_path_31" fill="none" stroke="rgb(115, 161, 191)" stroke-width="1" d="M138,508A235.5,424.5,0,0,1,373.5,83.5"></path><path id="kity_path_33" fill="none" stroke="rgb(115, 161, 191)" stroke-width="1" d="M501.5,83.5C521.5,83.5,521.5,31.5,541.5,31.5"></path><path id="kity_path_35" fill="none" stroke="rgb(115, 161, 191)" stroke-width="1" d="M501.5,83.5C521.5,83.5,521.5,83.5,541.5,83.5"></path><path id="kity_path_37" fill="none" stroke="rgb(115, 161, 191)" stroke-width="1" d="M501.5,83.5C521.5,83.5,521.5,135.5,541.5,135.5"></path><path id="kity_path_39" fill="none" stroke="rgb(115, 161, 191)" stroke-width="1" d="M138,508A235.5,308.5,0,0,1,373.5,199.5"></path><path id="kity_path_41" fill="none" stroke="rgb(115, 161, 191)" stroke-width="1" d="M138,508A235.5,74.5,0,0,1,373.5,433.5"></path><path id="kity_path_43" fill="none" stroke="rgb(115, 161, 191)" stroke-width="1" d="M626.5,433.5C646.5,433.5,646.5,263.5,666.5,263.5"></path><path id="kity_path_45" fill="none" stroke="rgb(115, 161, 191)" stroke-width="1" d="M626.5,433.5C646.5,433.5,646.5,315.5,666.5,315.5"></path><path id="kity_path_47" fill="none" stroke="rgb(115, 161, 191)" stroke-width="1" d="M626.5,433.5C646.5,433.5,646.5,445.5,666.5,445.5"></path><path id="kity_path_49" fill="none" stroke="rgb(115, 161, 191)" stroke-width="1" d="M844.5,445.5C864.5,445.5,864.5,367.5,884.5,367.5"></path><path id="kity_path_51" fill="none" stroke="rgb(115, 161, 191)" stroke-width="1" d="M844.5,445.5C864.5,445.5,864.5,419.5,884.5,419.5"></path><path id="kity_path_53" fill="none" stroke="rgb(115, 161, 191)" stroke-width="1" d="M844.5,445.5C864.5,445.5,864.5,471.5,884.5,471.5"></path><path id="kity_path_55" fill="none" stroke="rgb(115, 161, 191)" stroke-width="1" d="M844.5,445.5C864.5,445.5,864.5,523.5,884.5,523.5"></path><path id="kity_path_57" fill="none" stroke="rgb(115, 161, 191)" stroke-width="1" d="M626.5,433.5C646.5,433.5,646.5,601,666.5,601"></path><path id="kity_path_59" fill="none" stroke="rgb(115, 161, 191)" stroke-width="1" d="M852.5,601.5C872.5,601,872.5,575.5,892.5,575.5"></path><path id="kity_path_61" fill="none" stroke="rgb(115, 161, 191)" stroke-width="1" d="M852.5,601.5C872.5,601,872.5,627.5,892.5,627.5"></path><path id="kity_path_63" fill="none" stroke="rgb(115, 161, 191)" stroke-width="1" d="M138,508A235.5,233.5,0,0,0,373.5,741.5"></path><path id="kity_path_65" fill="none" stroke="rgb(115, 161, 191)" stroke-width="1" d="M654.5,741.5C674.5,741.5,674.5,742,694.5,742"></path><path id="kity_path_67" fill="none" stroke="rgb(115, 161, 191)" stroke-width="1" d="M855.5,742.5C875.5,742,875.5,690.5,895.5,690.5"></path><path id="kity_path_69" fill="none" stroke="rgb(115, 161, 191)" stroke-width="1" d="M855.5,742.5C875.5,742,875.5,742.5,895.5,742.5"></path><path id="kity_path_71" fill="none" stroke="rgb(115, 161, 191)" stroke-width="1" d="M855.5,742.5C875.5,742,875.5,794.5,895.5,794.5"></path><path id="kity_path_73" fill="none" stroke="rgb(115, 161, 191)" stroke-width="1" d="M138,508A235.5,425.5,0,0,0,373.5,933.5"></path><path id="kity_path_75" fill="none" stroke="rgb(115, 161, 191)" stroke-width="1" d="M584.5,933.5C604.5,933.5,604.5,855.5,624.5,855.5"></path><path id="kity_path_77" fill="none" stroke="rgb(115, 161, 191)" stroke-width="1" d="M584.5,933.5C604.5,933.5,604.5,907.5,624.5,907.5"></path><path id="kity_path_79" fill="none" stroke="rgb(115, 161, 191)" stroke-width="1" d="M584.5,933.5C604.5,933.5,604.5,959.5,624.5,959.5"></path><path id="kity_path_81" fill="none" stroke="rgb(115, 161, 191)" stroke-width="1" d="M584.5,933.5C604.5,933.5,604.5,1011.5,624.5,1011.5"></path></g><g id="minder_node1"><path id="node_outline1" fill="rgb(115, 161, 191)" stroke="rgb(57, 80, 96)" d="M25.5,487.5h225a5,5,0,0,1,5,5v31a5,5,0,0,1,-5,5h-225a5,5,0,0,1,-5,-5v-31a5,5,0,0,1,5,-5z" stroke-width="3"></path><g id="node_text1" fill="white"><text id="kity_text_22" text-rendering="inherit" font-size="16" dy=".8em" y="497.09999990463257" x="44.5">为彻底的关联性而设计</text></g><g id="kity_g_140" style="cursor: pointer;"><path id="kity_path_141" fill="none" stroke="none" d="M218,499h12a2,2,0,0,1,2,2v13a2,2,0,0,1,-2,2h-12a2,2,0,0,1,-2,-2v-13a2,2,0,0,1,2,-2z"></path><path id="kity_path_142" fill="white" stroke="none" d="M227,510H221V509h6L227,510L227,510zM227,508H221V507h6V508zM227,506H221V505h6V506zM226.5,512H220V503h8v7.5M227,513l2,-2V502H219v11"></path></g></g><g id="kity_g_12"><path id="kity_path_13" fill="none" stroke="none" d="M44.5,507.5h0v0h0z"></path></g><g id="kity_g_14"><path id="kity_path_15" fill="none" stroke="none" d="M44.5,507.5h0v0h0z"></path><path id="kity_path_16" fill="none" stroke="none"></path></g><g id="minder_node2"><g id="node_expander4" style="cursor: pointer;"><path id="kity_path_179" fill="white" stroke="gray" d="M374.5,83.5A6,6,0,1,1,362.5,83.5A6,6,0,1,1,374.5,83.5"></path><path id="kity_path_180" fill="none" stroke="gray" d="M364,83.5L373,83.5"></path></g><path id="node_outline5" fill="rgb(238, 243, 246)" stroke="rgb(115, 161, 191)" d="M378.5,70.5h120a3,3,0,0,1,3,3v20a3,3,0,0,1,-3,3h-120a3,3,0,0,1,-3,-3v-20a3,3,0,0,1,3,-3z" stroke-width="1"></path><g id="node_text5" fill="black"><text id="kity_text_89" text-rendering="inherit" font-size="14" dy=".8em" y="74.40000009536743" x="395.5">政治性和设计</text></g></g><g id="minder_node3"><g id="node_expander1" display="none" style="cursor: pointer;"><path id="kity_path_170" fill="white" stroke="gray" d="M541.5,31.5A6,6,0,1,1,529.5,31.5A6,6,0,1,1,541.5,31.5"></path><path id="kity_path_171" fill="none" stroke="gray"></path></g><path id="node_outline2" fill="none" stroke="none" d="M546.5,20.5h119a5,5,0,0,1,5,5v12a5,5,0,0,1,-5,5h-119a5,5,0,0,1,-5,-5v-12a5,5,0,0,1,5,-5z"></path><g id="node_text2" fill="black"><text id="kity_text_83" text-rendering="inherit" font-size="12" dy=".8em" y="23.700000047683716" x="551.5">设计：创造性的破坏</text></g></g><g id="minder_node4"><g id="node_expander2" display="none" style="cursor: pointer;"><path id="kity_path_173" fill="white" stroke="gray" d="M541.5,83.5A6,6,0,1,1,529.5,83.5A6,6,0,1,1,541.5,83.5"></path><path id="kity_path_174" fill="none" stroke="gray"></path></g><path id="node_outline3" fill="none" stroke="none" d="M546.5,72.5h251a5,5,0,0,1,5,5v12a5,5,0,0,1,-5,5h-251a5,5,0,0,1,-5,-5v-12a5,5,0,0,1,5,-5z"></path><g id="node_text3" fill="black"><text id="kity_text_85" text-rendering="inherit" font-size="12" dy=".8em" y="75.70000004768372" x="551.5">理想的文化：人们对所处状况的认识是普遍的</text></g></g><g id="minder_node5"><g id="node_expander3" display="none" style="cursor: pointer;"><path id="kity_path_176" fill="white" stroke="gray" d="M541.5,135.5A6,6,0,1,1,529.5,135.5A6,6,0,1,1,541.5,135.5"></path><path id="kity_path_177" fill="none" stroke="gray"></path></g><path id="node_outline4" fill="none" stroke="none" d="M546.5,124.5h275a5,5,0,0,1,5,5v12a5,5,0,0,1,-5,5h-275a5,5,0,0,1,-5,-5v-12a5,5,0,0,1,5,-5z"></path><g id="node_text4" fill="black"><text id="kity_text_87" text-rendering="inherit" font-size="12" dy=".8em" y="127.70000004768372" x="551.5">问题：缺乏批判意识导致设计对显示采取回避态度</text></g></g><g id="minder_node6"><g id="node_expander5" display="none" style="cursor: pointer;"><path id="kity_path_182" fill="white" stroke="gray" d="M374.5,199.5A6,6,0,1,1,362.5,199.5A6,6,0,1,1,374.5,199.5"></path><path id="kity_path_183" fill="none" stroke="gray"></path></g><path id="node_outline6" fill="rgb(238, 243, 246)" stroke="rgb(115, 161, 191)" d="M378.5,186.5h175a3,3,0,0,1,3,3v20a3,3,0,0,1,-3,3h-175a3,3,0,0,1,-3,-3v-20a3,3,0,0,1,3,-3z" stroke-width="1"></path><g id="node_text6" fill="black"><text id="kity_text_91" text-rendering="inherit" font-size="14" dy=".8em" y="190.40000009536743" x="395.5">危险、并行的依存现实</text></g></g><g id="minder_node7"><g id="node_expander16" style="cursor: pointer;"><path id="kity_path_215" fill="white" stroke="gray" d="M374.5,433.5A6,6,0,1,1,362.5,433.5A6,6,0,1,1,374.5,433.5"></path><path id="kity_path_216" fill="none" stroke="gray" d="M364,433.5L373,433.5"></path></g><path id="node_outline17" fill="rgb(238, 243, 246)" stroke="rgb(115, 161, 191)" d="M378.5,420.5h245a3,3,0,0,1,3,3v20a3,3,0,0,1,-3,3h-245a3,3,0,0,1,-3,-3v-20a3,3,0,0,1,3,-3z" stroke-width="1"></path><g id="node_text17" fill="black"><text id="kity_text_113" text-rendering="inherit" font-size="14" dy=".8em" y="424.40000009536743" x="395.5">关联性：哪些，为什么，目的是？</text></g></g><g id="minder_node8"><g id="node_expander6" display="none" style="cursor: pointer;"><path id="kity_path_185" fill="white" stroke="gray" d="M666.5,263.5A6,6,0,1,1,654.5,263.5A6,6,0,1,1,666.5,263.5"></path><path id="kity_path_186" fill="none" stroke="gray"></path></g><path id="node_outline7" fill="none" stroke="none" d="M671.5,252.5h71a5,5,0,0,1,5,5v12a5,5,0,0,1,-5,5h-71a5,5,0,0,1,-5,-5v-12a5,5,0,0,1,5,-5z"></path><g id="node_text7" fill="black"><text id="kity_text_93" text-rendering="inherit" font-size="12" dy=".8em" y="255.70000004768372" x="676.5">哲学关联性</text></g></g><g id="minder_node9"><g id="node_expander7" display="none" style="cursor: pointer;"><path id="kity_path_188" fill="white" stroke="gray" d="M666.5,315.5A6,6,0,1,1,654.5,315.5A6,6,0,1,1,666.5,315.5"></path><path id="kity_path_189" fill="none" stroke="gray"></path></g><path id="node_outline8" fill="none" stroke="none" d="M671.5,304.5h95a5,5,0,0,1,5,5v12a5,5,0,0,1,-5,5h-95a5,5,0,0,1,-5,-5v-12a5,5,0,0,1,5,-5z"></path><g id="node_text8" fill="black"><text id="kity_text_95" text-rendering="inherit" font-size="12" dy=".8em" y="307.7000000476837" x="676.5">多元资本关联性</text></g></g><g id="minder_node10"><g id="node_expander12" style="cursor: pointer;"><path id="kity_path_203" fill="white" stroke="gray" d="M666.5,445.5A6,6,0,1,1,654.5,445.5A6,6,0,1,1,666.5,445.5"></path><path id="kity_path_204" fill="none" stroke="gray" d="M656,445.5L665,445.5"></path></g><path id="node_outline13" fill="none" stroke="none" d="M671.5,434.5h168a5,5,0,0,1,5,5v12a5,5,0,0,1,-5,5h-168a5,5,0,0,1,-5,-5v-12a5,5,0,0,1,5,-5z"></path><g id="node_text13" fill="black"><text id="kity_text_105" text-rendering="inherit" font-size="12" dy=".8em" y="437.7000000476837" x="676.5">替代性经济与新生计的关联性</text></g></g><g id="minder_node11"><g id="node_expander8" display="none" style="cursor: pointer;"><path id="kity_path_191" fill="white" stroke="gray" d="M884.5,367.5A6,6,0,1,1,872.5,367.5A6,6,0,1,1,884.5,367.5"></path><path id="kity_path_192" fill="none" stroke="gray"></path></g><path id="node_outline9" fill="none" stroke="none" d="M889.5,356.5h47a5,5,0,0,1,5,5v12a5,5,0,0,1,-5,5h-47a5,5,0,0,1,-5,-5v-12a5,5,0,0,1,5,-5z"></path><g id="node_text9" fill="black"><text id="kity_text_97" text-rendering="inherit" font-size="12" dy=".8em" y="359.7000000476837" x="894.5">本地的</text></g></g><g id="minder_node12"><g id="node_expander9" display="none" style="cursor: pointer;"><path id="kity_path_194" fill="white" stroke="gray" d="M884.5,419.5A6,6,0,1,1,872.5,419.5A6,6,0,1,1,884.5,419.5"></path><path id="kity_path_195" fill="none" stroke="gray"></path></g><path id="node_outline10" fill="none" stroke="none" d="M889.5,408.5h47a5,5,0,0,1,5,5v12a5,5,0,0,1,-5,5h-47a5,5,0,0,1,-5,-5v-12a5,5,0,0,1,5,-5z"></path><g id="node_text10" fill="black"><text id="kity_text_99" text-rendering="inherit" font-size="12" dy=".8em" y="411.7000000476837" x="894.5">绿色的</text></g></g><g id="minder_node13"><g id="node_expander10" display="none" style="cursor: pointer;"><path id="kity_path_197" fill="white" stroke="gray" d="M884.5,471.5A6,6,0,1,1,872.5,471.5A6,6,0,1,1,884.5,471.5"></path><path id="kity_path_198" fill="none" stroke="gray"></path></g><path id="node_outline11" fill="none" stroke="none" d="M889.5,460.5h47a5,5,0,0,1,5,5v12a5,5,0,0,1,-5,5h-47a5,5,0,0,1,-5,-5v-12a5,5,0,0,1,5,-5z"></path><g id="node_text11" fill="black"><text id="kity_text_101" text-rendering="inherit" font-size="12" dy=".8em" y="463.7000000476837" x="894.5">数字的</text></g></g><g id="minder_node14"><g id="node_expander11" display="none" style="cursor: pointer;"><path id="kity_path_200" fill="white" stroke="gray" d="M884.5,523.5A6,6,0,1,1,872.5,523.5A6,6,0,1,1,884.5,523.5"></path><path id="kity_path_201" fill="none" stroke="gray"></path></g><path id="node_outline12" fill="none" stroke="none" d="M889.5,512.5h46a5,5,0,0,1,5,5v12a5,5,0,0,1,-5,5h-46a5,5,0,0,1,-5,-5v-12a5,5,0,0,1,5,-5z"></path><g id="node_text12" fill="black"><text id="kity_text_103" text-rendering="inherit" font-size="12" dy=".8em" y="515.7000000476837" x="894.5">设计的</text></g></g><g id="minder_node15"><g id="node_expander15" style="cursor: pointer;"><path id="kity_path_212" fill="white" stroke="gray" d="M666.5,601A6,6,0,1,1,654.5,601A6,6,0,1,1,666.5,601"></path><path id="kity_path_213" fill="none" stroke="gray" d="M656,601L665,601"></path></g><path id="node_outline16" fill="none" stroke="none" d="M671.5,587.5h176a5,5,0,0,1,5,5v17a5,5,0,0,1,-5,5h-176a5,5,0,0,1,-5,-5v-17a5,5,0,0,1,5,-5z"></path><g id="node_text16" fill="black"><text id="kity_text_111" text-rendering="inherit" font-size="12" dy=".8em" y="592.7000000476837" x="676.5">专业人员和设计师的关联性</text></g><g id="kity_g_134" style="cursor: pointer;"><path id="kity_path_135" fill="none" stroke="none" d="M829,592h12a2,2,0,0,1,2,2v13a2,2,0,0,1,-2,2h-12a2,2,0,0,1,-2,-2v-13a2,2,0,0,1,2,-2z"></path><path id="kity_path_136" fill="black" stroke="none" d="M838,603H832V602h6L838,603L838,603zM838,601H832V600h6V601zM838,599H832V598h6V599zM837.5,605H831V596h8v7.5M838,606l2,-2V595H830v11"></path></g></g><g id="minder_node16"><g id="node_expander13" display="none" style="cursor: pointer;"><path id="kity_path_206" fill="white" stroke="gray" d="M892.5,575.5A6,6,0,1,1,880.5,575.5A6,6,0,1,1,892.5,575.5"></path><path id="kity_path_207" fill="none" stroke="gray"></path></g><path id="node_outline14" fill="none" stroke="none" d="M897.5,564.5h178a5,5,0,0,1,5,5v12a5,5,0,0,1,-5,5h-178a5,5,0,0,1,-5,-5v-12a5,5,0,0,1,5,-5z"></path><g id="node_text14" fill="black"><text id="kity_text_107" text-rendering="inherit" font-size="12" dy=".8em" y="567.7000000476837" x="902.5">帮助人们发挥设计的潜力和能力</text></g></g><g id="minder_node17"><g id="node_expander14" display="none" style="cursor: pointer;"><path id="kity_path_209" fill="white" stroke="gray" d="M892.5,627.5A6,6,0,1,1,880.5,627.5A6,6,0,1,1,892.5,627.5"></path><path id="kity_path_210" fill="none" stroke="gray"></path></g><path id="node_outline15" fill="none" stroke="none" d="M897.5,616.5h71a5,5,0,0,1,5,5v12a5,5,0,0,1,-5,5h-71a5,5,0,0,1,-5,-5v-12a5,5,0,0,1,5,-5z"></path><g id="node_text15" fill="black"><text id="kity_text_109" text-rendering="inherit" font-size="12" dy=".8em" y="619.7000000476837" x="902.5">参与性设计</text></g></g><g id="minder_node18"><g id="node_expander21" style="cursor: pointer;"><path id="kity_path_230" fill="white" stroke="gray" d="M374.5,741.5A6,6,0,1,1,362.5,741.5A6,6,0,1,1,374.5,741.5"></path><path id="kity_path_231" fill="none" stroke="gray" d="M364,741.5L373,741.5"></path></g><path id="node_outline22" fill="rgb(238, 243, 246)" stroke="rgb(115, 161, 191)" d="M378.5,728.5h273a3,3,0,0,1,3,3v20a3,3,0,0,1,-3,3h-273a3,3,0,0,1,-3,-3v-20a3,3,0,0,1,3,-3z" stroke-width="1"></path><g id="node_text22" fill="black"><text id="kity_text_123" text-rendering="inherit" font-size="14" dy=".8em" y="732.4000000953674" x="395.5">行动主义设计策略：认同、争辩和对立</text></g></g><g id="minder_node19"><g id="node_expander20" style="cursor: pointer;"><path id="kity_path_227" fill="white" stroke="gray" d="M694.5,742A6,6,0,1,1,682.5,742A6,6,0,1,1,694.5,742"></path><path id="kity_path_228" fill="none" stroke="gray" d="M684,742L693,742"></path></g><path id="node_outline21" fill="none" stroke="none" d="M699.5,728.5h151a5,5,0,0,1,5,5v17a5,5,0,0,1,-5,5h-151a5,5,0,0,1,-5,-5v-17a5,5,0,0,1,5,-5z"></path><g id="node_text21" fill="black"><text id="kity_text_121" text-rendering="inherit" font-size="12" dy=".8em" y="733.7000000476837" x="704.5">设计行动主义的策略：</text></g><g id="kity_g_137" style="cursor: pointer;"><path id="kity_path_138" fill="none" stroke="none" d="M832,733h12a2,2,0,0,1,2,2v13a2,2,0,0,1,-2,2h-12a2,2,0,0,1,-2,-2v-13a2,2,0,0,1,2,-2z"></path><path id="kity_path_139" fill="black" stroke="none" d="M841,744H835V743h6L841,744L841,744zM841,742H835V741h6V742zM841,740H835V739h6V740zM840.5,746H834V737h8v7.5M841,747l2,-2V736H833v11"></path></g></g><g id="minder_node20"><g id="node_expander17" display="none" style="cursor: pointer;"><path id="kity_path_218" fill="white" stroke="gray" d="M895.5,690.5A6,6,0,1,1,883.5,690.5A6,6,0,1,1,895.5,690.5"></path><path id="kity_path_219" fill="none" stroke="gray"></path></g><path id="node_outline18" fill="none" stroke="none" d="M900.5,679.5h35a5,5,0,0,1,5,5v12a5,5,0,0,1,-5,5h-35a5,5,0,0,1,-5,-5v-12a5,5,0,0,1,5,-5z"></path><g id="node_text18" fill="black"><text id="kity_text_115" text-rendering="inherit" font-size="12" dy=".8em" y="682.7000000476837" x="905.5">认同</text></g></g><g id="minder_node21"><g id="node_expander18" display="none" style="cursor: pointer;"><path id="kity_path_221" fill="white" stroke="gray" d="M895.5,742.5A6,6,0,1,1,883.5,742.5A6,6,0,1,1,895.5,742.5"></path><path id="kity_path_222" fill="none" stroke="gray"></path></g><path id="node_outline19" fill="none" stroke="none" d="M900.5,731.5h36a5,5,0,0,1,5,5v12a5,5,0,0,1,-5,5h-36a5,5,0,0,1,-5,-5v-12a5,5,0,0,1,5,-5z"></path><g id="node_text19" fill="black"><text id="kity_text_117" text-rendering="inherit" font-size="12" dy=".8em" y="734.7000000476837" x="905.5">争辩</text></g></g><g id="minder_node22"><g id="node_expander19" display="none" style="cursor: pointer;"><path id="kity_path_224" fill="white" stroke="gray" d="M895.5,794.5A6,6,0,1,1,883.5,794.5A6,6,0,1,1,895.5,794.5"></path><path id="kity_path_225" fill="none" stroke="gray"></path></g><path id="node_outline20" fill="none" stroke="none" d="M900.5,783.5h35a5,5,0,0,1,5,5v12a5,5,0,0,1,-5,5h-35a5,5,0,0,1,-5,-5v-12a5,5,0,0,1,5,-5z"></path><g id="node_text20" fill="black"><text id="kity_text_119" text-rendering="inherit" font-size="12" dy=".8em" y="786.7000000476837" x="905.5">对立</text></g></g><g id="minder_node23"><g id="node_expander26" style="cursor: pointer;"><path id="kity_path_245" fill="white" stroke="gray" d="M374.5,933.5A6,6,0,1,1,362.5,933.5A6,6,0,1,1,374.5,933.5"></path><path id="kity_path_246" fill="none" stroke="gray" d="M364,933.5L373,933.5"></path></g><path id="node_outline27" fill="rgb(238, 243, 246)" stroke="rgb(115, 161, 191)" d="M378.5,920.5h203a3,3,0,0,1,3,3v20a3,3,0,0,1,-3,3h-203a3,3,0,0,1,-3,-3v-20a3,3,0,0,1,3,-3z" stroke-width="1"></path><g id="node_text27" fill="black"><text id="kity_text_133" text-rendering="inherit" font-size="14" dy=".8em" y="924.4000000953674" x="395.5">“关联性设计”的初步定义</text></g></g><g id="minder_node24"><g id="node_expander22" display="none" style="cursor: pointer;"><path id="kity_path_233" fill="white" stroke="gray" d="M624.5,855.5A6,6,0,1,1,612.5,855.5A6,6,0,1,1,624.5,855.5"></path><path id="kity_path_234" fill="none" stroke="gray"></path></g><path id="node_outline23" fill="none" stroke="none" d="M629.5,844.5h373a5,5,0,0,1,5,5v12a5,5,0,0,1,-5,5h-373a5,5,0,0,1,-5,-5v-12a5,5,0,0,1,5,-5z"></path><g id="node_text23" fill="black"><text id="kity_text_125" text-rendering="inherit" font-size="12" dy=".8em" y="847.7000000476837" x="634.5">考虑相互的，充满尊重的关联性（eg：作者用生态学进行景观设计）</text></g></g><g id="minder_node25"><g id="node_expander23" display="none" style="cursor: pointer;"><path id="kity_path_236" fill="white" stroke="gray" d="M624.5,907.5A6,6,0,1,1,612.5,907.5A6,6,0,1,1,624.5,907.5"></path><path id="kity_path_237" fill="none" stroke="gray"></path></g><path id="node_outline24" fill="none" stroke="none" d="M629.5,896.5h107a5,5,0,0,1,5,5v12a5,5,0,0,1,-5,5h-107a5,5,0,0,1,-5,-5v-12a5,5,0,0,1,5,-5z"></path><g id="node_text24" fill="black"><text id="kity_text_127" text-rendering="inherit" font-size="12" dy=".8em" y="899.7000000476837" x="634.5">互补的关系设计师</text></g></g><g id="minder_node26"><g id="node_expander24" display="none" style="cursor: pointer;"><path id="kity_path_239" fill="white" stroke="gray" d="M624.5,959.5A6,6,0,1,1,612.5,959.5A6,6,0,1,1,624.5,959.5"></path><path id="kity_path_240" fill="none" stroke="gray"></path></g><path id="node_outline25" fill="none" stroke="none" d="M629.5,948.5h240a5,5,0,0,1,5,5v12a5,5,0,0,1,-5,5h-240a5,5,0,0,1,-5,-5v-12a5,5,0,0,1,5,-5z"></path><g id="node_text25" fill="black"><text id="kity_text_129" text-rendering="inherit" font-size="12" dy=".8em" y="951.7000000476837" x="634.5">不在执念于“人类中心说”，转向关联主义</text></g></g><g id="minder_node27"><g id="node_expander25" display="none" style="cursor: pointer;"><path id="kity_path_242" fill="white" stroke="gray" d="M624.5,1011.5A6,6,0,1,1,612.5,1011.5A6,6,0,1,1,624.5,1011.5"></path><path id="kity_path_243" fill="none" stroke="gray"></path></g><path id="node_outline26" fill="none" stroke="none" d="M629.5,1000.5h153a5,5,0,0,1,5,5v12a5,5,0,0,1,-5,5h-153a5,5,0,0,1,-5,-5v-12a5,5,0,0,1,5,-5z"></path><g id="node_text26" fill="black"><text id="kity_text_131" text-rendering="inherit" font-size="12" dy=".8em" y="1003.7000000476837" x="634.5">关联性设计 -&gt; 可持续设计</text></g></g></g></g></svg>